Coordinates
version=1
nRows=22
nColumns=24
inDegrees=yes

Units are S.I. units (second, meters, Newtons, ...)
Angles are in degrees.

endheader
time	pelvis_tilt	pelvis_list	pelvis_rotation	pelvis_tx	pelvis_ty	pelvis_tz	hip_flexion_r	hip_adduction_r	hip_rotation_r	knee_angle_r	ankle_angle_r	subtalar_angle_r	mtp_angle_r	hip_flexion_l	hip_adduction_l	hip_rotation_l	knee_angle_l	ankle_angle_l	subtalar_angle_l	mtp_angle_l	lumbar_extension	lumbar_bending	lumbar_rotation
      0.50300000	      0.95320262	      0.45766245	      3.18453903	     -0.74870068	      0.99090436	      0.29020128	     23.32428198	      2.03060188	     -0.83211765	     -9.21133790	      3.52205419	    -13.66286343	     -0.31138804	    -16.08286569	      4.68105756	      1.61479653	     -5.92565699	     10.40287584	     -2.95539516	      0.40013385	     -2.72889032	      1.89661088	     -1.41607858
      0.50716667	      0.92892105	      0.39481640	      3.20728758	     -0.74278263	      0.99026140	      0.29035753	     23.21622984	      2.16183690	     -0.91764936	     -9.10619033	      3.28405926	    -13.63348347	     -0.46328213	    -16.06495115	      4.57021942	      1.42152815	     -6.61937871	     10.60317835	     -2.57556855	      0.52492652	     -2.65340635	      1.97055309	     -1.43379084
      0.51133333	      0.89253456	      0.35053538	      3.24259577	     -0.73685586	      0.98966655	      0.29046796	     23.12316823	      2.26617484	     -0.99517121	     -9.07642679	      2.97318655	    -13.60301618	     -0.51042103	    -16.04548564	      4.48936660	      1.43044273	     -7.28133966	     10.67050126	     -2.49238616	      0.58290161	     -2.56894134	      2.03331264	     -1.45052612
      0.51550000	      0.88164906	      0.28551233	      3.24648878	     -0.73087107	      0.98911528	      0.29065494	     23.00629399	      2.40957975	     -1.03345871	     -9.12125575	      2.67462528	    -13.63148114	     -0.57994870	    -15.98512216	      4.37272009	      1.18155521	     -8.08024117	     10.81364603	     -2.06320290	      0.74714838	     -2.49291374	      2.10397027	     -1.53193700
      0.51966667	      0.85157171	      0.21968639	      3.24851495	     -0.72486962	      0.98857959	      0.29083704	     22.91344251	      2.55348791	     -1.04539290	     -9.23063561	      2.31290992	    -13.69001404	     -0.62123006	    -15.89357026	      4.26248966	      1.03330284	     -8.89663052	     10.89343383	     -1.78375967	      0.96559557	     -2.39945603	      2.18561908	     -1.55205822
      0.52383333	      0.83443051	      0.16897372	      3.24485168	     -0.71884456	      0.98810596	      0.29098398	     22.82042166	      2.67471719	     -1.08974552	     -9.41854410	      1.87912051	    -13.67551096	     -0.62678597	    -15.81943409	      4.18278113	      1.01257564	     -9.70320066	     10.86664328	     -1.76552641	      1.03418398	     -2.31375871	      2.26709437	     -1.54063108
      0.52800000	      0.77899596	      0.09328391	      3.22530187	     -0.71280869	      0.98760196	      0.29124175	     22.76598416	      2.83986290	     -1.02701069	     -9.64977456	      1.48506687	    -13.78888422	     -0.59459186	    -15.60937033	      4.05018387	      0.75690746	    -10.69066824	     10.92874924	     -1.27643678	      1.29876287	     -2.20031173	      2.33995520	     -1.57776232
      0.53216667	      0.76372781	      0.01315377	      3.19687379	     -0.70673885	      0.98720042	      0.29148617	     22.66424272	      3.01035479	     -0.96258900	     -9.91051396	      1.01358396	    -13.91964275	     -0.52700355	    -15.44000190	      3.91948413	      0.57405939	    -11.67688668	     10.89941454	     -0.96663858	      1.64177086	     -2.12031514	      2.43857206	     -1.56379763
      0.53633333	      0.72609757	     -0.05199049	      3.18270748	     -0.70065166	      0.98682617	      0.29169477	     22.58252418	      3.15256312	     -0.91011537	    -10.19548154	      0.50235350	    -13.97161410	     -0.47146318	    -15.22854414	      3.80956518	      0.49577725	    -12.69264710	     10.77068379	     -0.80228893	      1.88019283	     -2.00554310	      2.51748807	     -1.53316318
      0.54050000	      0.70780190	     -0.14678928	      3.11249375	     -0.69456620	      0.98646178	      0.29202218	     22.51833927	      3.35224901	     -0.79561542	    -10.59032284	      0.07602352	    -14.20125623	     -0.34464657	    -14.97185270	      3.65658062	      0.21317271	    -13.83140147	     10.69587517	     -0.39380403	      2.35254749	     -1.92975856	      2.63833349	     -1.50845550
      0.54466667	      0.77609915	     -0.26943586	      3.03479832	     -0.68841991	      0.98629191	      0.29238748	     22.28661466	      3.60116825	     -0.55173373	    -10.84615853	     -0.56233048	    -14.64093077	      0.30154204	    -14.80829913	      3.46603227	     -0.05009160	    -14.95102389	     10.44469214	     -0.07513797	      4.65177839	     -1.94902154	      2.79164464	     -1.45705367
      0.54883333	      0.66355101	     -0.31834125	      3.00390344	     -0.68234937	      0.98589287	      0.29261476	     22.35943290	      3.70934676	     -0.55315154	    -11.35498860	     -0.95701932	    -14.55306197	      0.35070056	    -14.38624508	      3.37281371	     -0.10944401	    -16.19143203	     10.16323035	      0.04370644	      4.83158230	     -1.74147181	      2.85016356	     -1.38934745
      0.55300000	      0.70507211	     -0.44890737	      2.89854438	     -0.67622595	      0.98571449	      0.29305311	     22.20445520	      3.96933784	     -0.31030475	    -11.74564195	     -1.46419827	    -14.95716116	      0.71649219	    -14.08925988	      3.15708052	     -0.45905719	    -17.50038141	      9.87567402	      0.50398826	      6.26644296	     -1.73382369	      3.01134510	     -1.33096061
      0.55716667	      0.61975389	     -0.51539733	      2.83676786	     -0.67018098	      0.98538170	      0.29335499	     22.27530927	      4.10691399	     -0.27694570	    -12.33770163	     -1.77232695	    -14.95015207	      0.78086157	    -13.60420749	      3.02952608	     -0.59753986	    -18.89271251	      9.52429464	      0.71579456	      6.56085535	     -1.57076790	      3.09164648	     -1.24404685
      0.56133333	      0.64420256	     -0.66620333	      2.73076342	     -0.66406823	      0.98525740	      0.29382910	     22.12735285	      4.39116899	      0.02627539	    -12.72497907	     -2.26041240	    -15.45266073	      1.08434420	    -13.20324775	      2.77481976	     -0.93039262	    -20.33213207	      9.05077386	      1.14547767	      8.26923461	     -1.53688487	      3.26907800	     -1.16186002
      0.56550000	      0.58855845	     -0.75797194	      2.67878218	     -0.65802414	      0.98503579	      0.29412883	     22.16060264	      4.54650583	      0.04281339	    -13.32141617	     -2.51824386	    -15.38706817	      1.11388231	    -12.67047981	      2.59988574	     -1.06118383	    -21.83804517	      8.51488213	      1.36462857	      8.47929087	     -1.39967786	      3.38378165	     -1.05845801
      0.56966667	      0.53960139	     -0.87398410	      2.59055668	     -0.65199786	      0.98482259	      0.29453827	     22.17594793	      4.75482458	      0.17690582	    -13.90012627	     -2.75667414	    -15.49788466	      1.14276549	    -12.09308397	      2.37912536	     -1.30041747	    -23.42873539	      7.94055925	      1.72003270	      8.75889037	     -1.28249013	      3.52026079	     -0.95976311
      0.57383333	      0.56507897	     -1.03804249	      2.49445181	     -0.64598627	      0.98474080	      0.29499872	     22.09135752	      5.03399658	      0.38569529	    -14.44700212	     -2.96494914	    -15.92970041	      1.48610731	    -11.56237942	      2.08870832	     -1.57080532	    -25.04549471	      7.19732111	      1.94462645	     14.33122235	     -1.26232836	      3.71689077	     -0.85712438
      0.57800000	      0.59409567	     -1.18542612	      2.39935781	     -0.64000035	      0.98466328	      0.29543679	     22.03141736	      5.27476917	      0.48435139	    -15.04989463	     -3.11528891	    -15.96704397	      1.48705409	    -10.99491909	      1.80434624	     -1.83635648	    -26.72983572	      6.47370573	      2.36824215	     14.41064859	     -1.24769843	      3.89332347	     -0.75091642
      0.58216667	      0.59114416	     -1.34362067	      2.31930768	     -0.63404691	      0.98457407	      0.29587021	     21.98994342	      5.52748409	      0.62794150	    -15.62912368	     -3.16666154	    -16.07952177	      1.48277147	    -10.35213477	      1.50322176	     -2.05076828	    -28.46356244	      5.63269353	      2.70181069	     14.52467188	     -1.18523296	      4.07407161	     -0.64558094
      0.58633333	      0.59977779	     -1.52114764	      2.23706619	     -0.62813953	      0.98450168	      0.29632135	     21.94478547	      5.80232035	      0.76447985	    -16.22780797	     -3.16609620	    -16.23828495	      1.47061951	     -9.67978498	      1.16685629	     -2.27314895	    -30.24874505	      4.74360649	      3.04751600	     14.69185317	     -1.15312102	      4.27664506	     -0.54021950
      0.59050000	      0.64119088	     -1.71649990	      2.14509679	     -0.62228899	      0.98446279	      0.29678917	     21.87596563	      6.10042841	      0.88731576	    -16.84919517	     -3.14305367	    -16.47570753	      1.43774819	     -9.00900325	      0.79838301	     -2.51143875	    -32.07518358	      3.83578764	      3.40289925	     14.99295799	     -1.17144082	      4.51116736	     -0.42609923
